<svg width="520" height="410" xmlns="http://www.w3.org/2000/svg" xmlns:xlink="http://www.w3.org/1999/xlink" xml:space="preserve" overflow="hidden"><defs><clipPath id="clip0"><rect x="708" y="104" width="520" height="410"/></clipPath><clipPath id="clip1"><rect x="708" y="104" width="520" height="410"/></clipPath><clipPath id="clip2"><rect x="709" y="105" width="518" height="409"/></clipPath><clipPath id="clip3"><rect x="709" y="104" width="518" height="410"/></clipPath></defs><g clip-path="url(#clip0)" transform="translate(-708 -104)"><g clip-path="url(#clip1)"><g clip-path="url(#clip2)"><g clip-path="url(#clip3)"><path d="M296.295 766.046 254.168 520.704 294.54 388.217 599.963 353.869 759.695 541.967 701.77 785.674 296.295 766.046Z" fill="#FFFFFF" fill-rule="evenodd" fill-opacity="1" transform="matrix(1.00128 0 0 1 460.186 -240.38)"/><text fill="#000000" fill-opacity="1" font-family="Avenir Black,Avenir Black_MSFontService,sans-serif" font-style="normal" font-variant="normal" font-weight="800" font-stretch="normal" font-size="761" text-anchor="start" direction="ltr" writing-mode="lr-tb" unicode-bidi="normal" text-decoration="none" transform="matrix(0.351509 0 0 0.351061 789.479 302)">z</text><text fill="#000000" fill-opacity="1" font-family="Avenir Black,Avenir Black_MSFontService,sans-serif" font-style="normal" font-variant="normal" font-weight="800" font-stretch="normal" font-size="761" text-anchor="start" direction="ltr" writing-mode="lr-tb" unicode-bidi="normal" text-decoration="none" transform="matrix(0.351509 0 0 0.351061 923.198 302)">o</text><text fill="#000000" fill-opacity="1" font-family="Avenir Black,Avenir Black_MSFontService,sans-serif" font-style="normal" font-variant="normal" font-weight="800" font-stretch="normal" font-size="761" text-anchor="start" direction="ltr" writing-mode="lr-tb" unicode-bidi="normal" text-decoration="none" transform="matrix(0.351509 0 0 0.351061 779.514 458)">o</text><text fill="#FFC000" fill-opacity="1" font-family="Avenir Black,Avenir Black_MSFontService,sans-serif" font-style="normal" font-variant="normal" font-weight="800" font-stretch="normal" font-size="761" text-anchor="start" direction="ltr" writing-mode="lr-tb" unicode-bidi="normal" text-decoration="none" transform="matrix(0.351509 0 0 0.351061 942.636 458)">e</text><path d="M339.651 733.892 617.874 733.892" stroke="#C00000" stroke-width="24.1354" stroke-linecap="round" stroke-linejoin="miter" stroke-miterlimit="8" stroke-opacity="1" fill="none" fill-rule="evenodd" transform="matrix(1.00128 0 0 1 460.186 -240.38)"/></g></g></g></g></svg>