<svg width="519" height="410" xmlns="http://www.w3.org/2000/svg" xmlns:xlink="http://www.w3.org/1999/xlink" xml:space="preserve" overflow="hidden"><defs><clipPath id="clip0"><rect x="669" y="184" width="519" height="410"/></clipPath><clipPath id="clip1"><rect x="669" y="184" width="519" height="410"/></clipPath><clipPath id="clip2"><rect x="670" y="184" width="518" height="410"/></clipPath><clipPath id="clip3"><rect x="670" y="184" width="518" height="410"/></clipPath></defs><g clip-path="url(#clip0)" transform="translate(-669 -184)"><g clip-path="url(#clip1)"><g clip-path="url(#clip2)"><g clip-path="url(#clip3)"><path d="M296.674 767.025 254.493 521.369 294.916 388.713 600.73 354.322 760.666 542.66 702.667 786.678 296.674 767.025Z" fill="#FFFFFF" fill-rule="evenodd" fill-opacity="1" transform="matrix(1 0 0 1.00117 421.186 -162.224)"/><text fill="#000000" fill-opacity="1" font-family="Avenir Black,Avenir Black_MSFontService,sans-serif" font-style="normal" font-variant="normal" font-weight="800" font-stretch="normal" font-size="761" text-anchor="start" direction="ltr" writing-mode="lr-tb" unicode-bidi="normal" text-decoration="none" transform="matrix(0.351509 0 0 0.351919 750.479 381)">z</text><text fill="#000000" fill-opacity="1" font-family="Avenir Black,Avenir Black_MSFontService,sans-serif" font-style="normal" font-variant="normal" font-weight="800" font-stretch="normal" font-size="761" text-anchor="start" direction="ltr" writing-mode="lr-tb" unicode-bidi="normal" text-decoration="none" transform="matrix(0.351509 0 0 0.351919 884.198 381)">o</text><text fill="#000000" fill-opacity="1" font-family="Avenir Black,Avenir Black_MSFontService,sans-serif" font-style="normal" font-variant="normal" font-weight="800" font-stretch="normal" font-size="761" text-anchor="start" direction="ltr" writing-mode="lr-tb" unicode-bidi="normal" text-decoration="none" transform="matrix(0.351509 0 0 0.351919 740.514 538)">o</text><text fill="#FFC000" fill-opacity="1" font-family="Avenir Black,Avenir Black_MSFontService,sans-serif" font-style="normal" font-variant="normal" font-weight="800" font-stretch="normal" font-size="761" text-anchor="start" direction="ltr" writing-mode="lr-tb" unicode-bidi="normal" text-decoration="none" transform="matrix(0.351509 0 0 0.351919 903.636 538)">e</text><path d="M340.085 734.83 618.664 734.83" stroke="#C00000" stroke-width="24.1663" stroke-linecap="round" stroke-linejoin="miter" stroke-miterlimit="8" stroke-opacity="1" fill="none" fill-rule="evenodd" transform="matrix(1 0 0 1.00117 421.186 -162.224)"/></g></g></g></g></svg>